<mxfile host="65bd71144e" modified="2020-11-09T02:26:10.081Z" agent="5.0 (Macintosh; Intel Mac OS X 10_15_7) AppleWebKit/537.36 (KHTML, like Gecko) Code/1.50.1 Chrome/83.0.4103.122 Electron/9.2.1 Safari/537.36" version="13.6.5" etag="AD523yG4c0c84TueOE6m" pages="2">
    <diagram id="1N1eKyOcBoQAe6rB38dJ" name="目的関数">
        <mxGraphModel dx="1208" dy="860" grid="1" gridSize="10" guides="1" tooltips="1" connect="1" arrows="1" fold="1" page="1" pageScale="1" pageWidth="827" pageHeight="1169" math="0" shadow="0">
            <root>
                <mxCell id="0"/>
                <mxCell id="1" parent="0"/>
                <mxCell id="2" value="&lt;font style=&quot;font-size: 34px&quot;&gt;目的関数&lt;/font&gt;" style="text;html=1;strokeColor=none;fillColor=none;align=center;verticalAlign=middle;whiteSpace=wrap;rounded=0;" vertex="1" parent="1">
                    <mxGeometry x="110" y="40" width="290" height="60" as="geometry"/>
                </mxCell>
                <mxCell id="3" value="&lt;font style=&quot;font-size: 22px&quot;&gt;従業員の仕事負担ができるだけ均等なシフト&lt;br&gt;&lt;br&gt;マネージャーが納得できるシフト（マネジャーの手直しが一番少ないシフト）&lt;br&gt;&lt;br&gt;&lt;/font&gt;" style="rounded=0;whiteSpace=wrap;html=1;" vertex="1" parent="1">
                    <mxGeometry x="80" y="120" width="480" height="240" as="geometry"/>
                </mxCell>
            </root>
        </mxGraphModel>
    </diagram>
    <diagram id="50Zoprj4UOBR1KHfc3y2" name="制約">
        <mxGraphModel dx="1208" dy="860" grid="1" gridSize="10" guides="1" tooltips="1" connect="1" arrows="1" fold="1" page="1" pageScale="1" pageWidth="827" pageHeight="1169" math="0" shadow="0">
            <root>
                <mxCell id="JZ_cULcGzYho4HUnqOvs-0"/>
                <mxCell id="JZ_cULcGzYho4HUnqOvs-1" parent="JZ_cULcGzYho4HUnqOvs-0"/>
                <mxCell id="JZ_cULcGzYho4HUnqOvs-2" value="&lt;font style=&quot;font-size: 36px&quot;&gt;制約条件&lt;/font&gt;" style="text;html=1;strokeColor=none;fillColor=none;align=center;verticalAlign=middle;whiteSpace=wrap;rounded=0;" vertex="1" parent="JZ_cULcGzYho4HUnqOvs-1">
                    <mxGeometry x="100" y="40" width="290" height="60" as="geometry"/>
                </mxCell>
                <mxCell id="JZ_cULcGzYho4HUnqOvs-5" value="必須制約条件(hard constraint)" style="swimlane;fontStyle=0;childLayout=stackLayout;horizontal=1;startSize=40;fillColor=none;horizontalStack=0;resizeParent=1;resizeParentMax=0;resizeLast=0;collapsible=1;marginBottom=0;fontSize=14;strokeWidth=1;" vertex="1" parent="JZ_cULcGzYho4HUnqOvs-1">
                    <mxGeometry x="70" y="120" width="400" height="118" as="geometry"/>
                </mxCell>
                <mxCell id="JZ_cULcGzYho4HUnqOvs-6" value="特別シフトが組み込まれていること" style="text;strokeColor=none;fillColor=none;align=left;verticalAlign=top;spacingLeft=4;spacingRight=4;overflow=hidden;rotatable=0;points=[[0,0.5],[1,0.5]];portConstraint=eastwest;" vertex="1" parent="JZ_cULcGzYho4HUnqOvs-5">
                    <mxGeometry y="40" width="400" height="26" as="geometry"/>
                </mxCell>
                <mxCell id="JZ_cULcGzYho4HUnqOvs-7" value="休憩が必要な人に休憩があること" style="text;strokeColor=none;fillColor=none;align=left;verticalAlign=top;spacingLeft=4;spacingRight=4;overflow=hidden;rotatable=0;points=[[0,0.5],[1,0.5]];portConstraint=eastwest;" vertex="1" parent="JZ_cULcGzYho4HUnqOvs-5">
                    <mxGeometry y="66" width="400" height="26" as="geometry"/>
                </mxCell>
                <mxCell id="JZ_cULcGzYho4HUnqOvs-8" value="仕事で人員必須の仕事に必ず人が入っていること" style="text;strokeColor=none;fillColor=none;align=left;verticalAlign=top;spacingLeft=4;spacingRight=4;overflow=hidden;rotatable=0;points=[[0,0.5],[1,0.5]];portConstraint=eastwest;" vertex="1" parent="JZ_cULcGzYho4HUnqOvs-5">
                    <mxGeometry y="92" width="400" height="26" as="geometry"/>
                </mxCell>
                <mxCell id="JZ_cULcGzYho4HUnqOvs-9" value="条件的制約条件(soft constraint)" style="swimlane;fontStyle=0;childLayout=stackLayout;horizontal=1;startSize=50;horizontalStack=0;resizeParent=1;resizeParentMax=0;resizeLast=0;collapsible=1;marginBottom=0;fontSize=14;strokeWidth=1;fillColor=none;direction=east;flipH=1;flipV=0;" vertex="1" parent="JZ_cULcGzYho4HUnqOvs-1">
                    <mxGeometry x="80" y="280" width="380" height="250" as="geometry">
                        <mxRectangle x="70" y="300" width="230" height="50" as="alternateBounds"/>
                    </mxGeometry>
                </mxCell>
                <mxCell id="JZ_cULcGzYho4HUnqOvs-10" value="同じ仕事に連続して入らないようにする" style="text;strokeColor=none;fillColor=none;align=left;verticalAlign=top;spacingLeft=4;spacingRight=4;overflow=hidden;rotatable=0;points=[[0,0.5],[1,0.5]];portConstraint=eastwest;direction=north;" vertex="1" parent="JZ_cULcGzYho4HUnqOvs-9">
                    <mxGeometry y="50" width="380" height="30" as="geometry"/>
                </mxCell>
                <mxCell id="JZ_cULcGzYho4HUnqOvs-11" value="大変な仕事の後はできるだけ簡単な仕事をいれる" style="text;strokeColor=none;fillColor=none;align=left;verticalAlign=top;spacingLeft=4;spacingRight=4;overflow=hidden;rotatable=0;points=[[0,0.5],[1,0.5]];portConstraint=eastwest;" vertex="1" parent="JZ_cULcGzYho4HUnqOvs-9">
                    <mxGeometry y="80" width="380" height="26" as="geometry"/>
                </mxCell>
                <mxCell id="JZ_cULcGzYho4HUnqOvs-12" value="休憩の時間が被り過ぎて、人が減りすぎるのを防ぐ&#10;&#10;仕事区分にできるだけあった仕事をいれる&#10;&#10;&#10;&#10;&#10;&#10;" style="text;strokeColor=none;fillColor=none;align=left;verticalAlign=top;spacingLeft=4;spacingRight=4;overflow=hidden;rotatable=0;points=[[0,0.5],[1,0.5]];portConstraint=eastwest;" vertex="1" parent="JZ_cULcGzYho4HUnqOvs-9">
                    <mxGeometry y="106" width="380" height="144" as="geometry"/>
                </mxCell>
            </root>
        </mxGraphModel>
    </diagram>
</mxfile>